<svg width="9" height="16" viewBox="0 0 9 16" fill="none" xmlns="http://www.w3.org/2000/svg">
<path d="M8.76135 8.62196L2.16118 15.7425C1.84298 16.0858 1.32678 16.0858 1.00858 15.7425L0.238698 14.9119C-0.0791691 14.5689 -0.0795077 14.0135 0.23734 13.6698L5.46823 8.00018L0.237681 2.33019C-0.0795076 1.98651 -0.0788285 1.43105 0.239039 1.08811L1.00892 0.257485C1.32712 -0.0858295 1.84332 -0.0858294 2.16152 0.257485L8.76135 7.37841C9.07955 7.72172 9.07955 8.27865 8.76135 8.62196Z" fill="#E0E0E0"/>
<path d="M8.76135 8.62196L2.16118 15.7425C1.84298 16.0858 1.32678 16.0858 1.00858 15.7425L0.238698 14.9119C-0.0791691 14.5689 -0.0795077 14.0135 0.23734 13.6698L5.46823 8.00018L0.237681 2.33019C-0.0795076 1.98651 -0.0788285 1.43105 0.239039 1.08811L1.00892 0.257485C1.32712 -0.0858295 1.84332 -0.0858294 2.16152 0.257485L8.76135 7.37841C9.07955 7.72172 9.07955 8.27865 8.76135 8.62196Z" fill="#C8C8C8"/>
</svg>
