<?xml version="1.0" encoding="iso-8859-1"?>
<!-- Generator: Adobe Illustrator 19.0.0, SVG Export Plug-In . SVG Version: 6.00 Build 0)  -->
<svg version="1.1" id="Capa_1" xmlns="http://www.w3.org/2000/svg" xmlns:xlink="http://www.w3.org/1999/xlink" x="0px" y="0px"
	 viewBox="0 0 512 512" style="enable-background:new 0 0 512 512;" xml:space="preserve" fill="#1b729f">
<g>
	<g>
		<path d="M205.888,30.255c-17.067,0-30.255,13.188-30.255,30.255c0,16.291,13.964,30.255,30.255,30.255
			c16.291,0,30.255-13.188,30.255-30.255C236.143,44.218,222.955,30.255,205.888,30.255z M205.888,75.248
			c-7.758,0-14.739-6.206-14.739-14.739c0-7.758,6.982-14.739,14.739-14.739s14.739,6.206,14.739,14.739
			C220.628,68.267,214.422,75.248,205.888,75.248z"/>
	</g>
</g>
<g>
	<g>
		<path d="M506.882,408.824l-16.291-6.206c-3.103-0.776-6.206,0-8.533,2.327l-6.206,6.982l-9.309-10.861
			c-1.552-2.327-4.655-3.103-7.758-2.327c-3.103,0.776-5.43,3.103-5.43,5.43l-7.758,32.582l-16.291,5.43
			c-3.103,0.776-4.655,3.879-5.43,6.982l-2.327,27.927c0,2.327,0.776,5.43,3.103,6.982c2.327,1.552,4.655,1.552,7.758,0.776
			l74.473-30.255c3.103-1.552,4.654-3.879,4.654-6.982v-31.806C512.313,412.703,509.985,409.6,506.882,408.824z M439.391,466.23
			l0.776-10.085l15.515-5.43c2.327-0.776,4.655-3.103,4.655-5.43l4.655-20.945l4.655,6.206c1.552,1.552,3.879,3.103,6.206,3.103
			s4.654-0.776,6.206-3.103l8.533-10.085l6.206,2.327v20.17h0L439.391,466.23z"/>
	</g>
</g>
<g>
	<g>
		<path d="M503.779,218.764l-92.315-33.358V89.212c0-4.655-3.103-7.758-7.758-7.758H295.101
			c-7.758-13.964-19.394-24.824-35.685-32.582C257.864,20.945,233.816,0,205.113,0c-27.927,0-52.751,20.945-54.303,48.873
			c-15.515,6.982-27.927,18.618-35.685,32.582H8.07c-4.655,0-7.758,3.103-7.758,7.758v415.03c0,4.655,3.103,7.758,7.758,7.758
			h395.636c4.654,0,7.758-3.103,7.758-7.758v-58.182l6.206-2.327c3.103-0.776,4.655-3.879,5.43-6.982l1.552-20.17l16.291-5.43
			c2.327-0.776,4.655-3.103,5.43-5.43l5.43-20.17l5.43,6.206c1.552,1.552,3.879,2.327,5.43,2.327c2.327,0,3.879-0.776,5.43-2.327
			l9.309-10.085l11.636,3.879c2.327,0.776,4.655,0.776,6.982-0.776c2.327-1.552,3.103-3.879,3.103-6.206V277.721l5.43-2.327
			c3.103-0.776,4.655-3.879,4.655-6.982v-42.667C509.21,222.642,507.658,219.539,503.779,218.764z M478.955,225.745l-125.673,48.097
			l-130.327-48.097l130.327-44.994L478.955,225.745z M218.301,282.376l128,46.545v118.691l-128-48.873V282.376z M208.216,262.206
			v-25.6l137.309,51.2v24.824L208.216,262.206z M162.446,61.285c3.103-1.552,5.43-4.655,4.655-7.758
			c-1.552-21.721,17.067-38.788,38.788-38.788c21.721,0,39.564,16.291,38.788,38.788c0,3.103,1.552,6.206,4.655,7.758
			c24.824,10.085,38.788,28.703,40.339,57.406H122.107C123.658,90.764,137.622,71.37,162.446,61.285z M395.949,496.485H15.828V96.97
			h94.642c-2.327,9.309-3.879,18.618-3.879,29.479c0,4.655,3.103,7.758,7.758,7.758h183.855c4.655,0,7.758-3.103,7.758-7.758
			c0-10.861-1.552-20.17-3.879-29.479h93.867v82.23l-40.339-13.964c-1.552-0.776-3.103-0.776-5.43,0l-152.824,52.751
			c-3.103,0.776-5.43,3.879-5.43,6.982v41.891c0,3.103,2.327,6.206,5.43,6.982l4.655,1.552v127.224c0,3.103,2.327,6.206,4.655,6.982
			l143.515,55.079c2.327,0.776,3.879,0.776,5.43,0l40.339-14.739V496.485z M484.385,367.709l-6.206-2.327
			c-3.103-0.776-6.206,0-8.533,2.327l-6.982,6.982l-10.085-10.085c-1.552-2.327-4.655-3.103-7.758-2.327s-4.655,3.103-5.43,5.43
			l-7.758,29.479l-16.291,5.43c-3.103,0.776-5.43,3.879-5.43,6.982l-1.552,20.945l-6.982,2.327l-39.564,14.739V328.921l122.57-45.77
			V367.709z M493.695,262.982c-2.327,0.776-128.776,48.097-132.655,49.648v-25.6l132.655-50.424V262.982z"/>
	</g>
</g>
<g>
	<g>
		<path d="M93.404,143.515H40.652c-4.655,0-7.758,3.103-7.758,7.758v56.63c0,3.879,3.103,7.758,7.758,7.758h52.752
			c4.655,0,7.758-3.103,7.758-7.758v-56.63C101.161,146.618,98.058,143.515,93.404,143.515z M85.646,200.145H48.41V159.03h37.236
			V200.145z"/>
	</g>
</g>
<g>
	<g>
		<path d="M92.628,248.242H40.652c-4.655,0-7.758,3.103-7.758,7.758v56.63c0,4.655,3.103,7.758,7.758,7.758h51.976v-0.776
			c4.655,0,7.758-3.103,7.758-7.758V256C100.385,251.345,97.282,248.242,92.628,248.242z M85.646,304.873H48.41v-41.115h37.236
			V304.873z"/>
	</g>
</g>
<g>
	<g>
		<path d="M171.755,354.521H47.634c-4.655,0-7.758,3.103-7.758,7.758v107.055c0,4.654,3.103,7.758,7.758,7.758h124.121
			c4.655,0,7.758-3.103,7.758-7.758V362.279C179.513,358.4,175.634,354.521,171.755,354.521z M163.998,461.576H55.391v-91.539
			h108.606V461.576z"/>
	</g>
</g>
<g>
	<g>
		<path d="M233.04,172.218H122.882c-4.655,0-7.758,3.103-7.758,7.758c0,3.879,3.103,7.758,7.758,7.758H233.04
			c4.655,0,7.758-3.103,7.758-7.758S237.695,172.218,233.04,172.218z"/>
	</g>
</g>
<g>
	<g>
		<path d="M177.961,276.17h-55.855c-4.655,0-7.758,3.103-7.758,7.758s3.103,7.758,7.758,7.758h55.855
			c4.655,0,7.758-3.103,7.758-7.758S181.84,276.17,177.961,276.17z"/>
	</g>
</g>
<g>
	<g>
		<path d="M152.361,385.552c-3.103-3.103-7.758-3.103-10.861,0l-44.218,45.77l-13.964-23.273c-2.327-3.879-6.982-4.655-10.861-2.327
			s-4.655,6.982-2.327,10.861l19.394,31.806c1.552,2.327,3.103,3.103,5.43,3.879h0.776c2.327,0,3.879-0.776,5.43-2.327l51.2-53.527
			C155.464,393.309,155.464,388.655,152.361,385.552z"/>
	</g>
</g>
<g>
</g>
<g>
</g>
<g>
</g>
<g>
</g>
<g>
</g>
<g>
</g>
<g>
</g>
<g>
</g>
<g>
</g>
<g>
</g>
<g>
</g>
<g>
</g>
<g>
</g>
<g>
</g>
<g>
</g>
</svg>
