<svg height="512pt" viewBox="0 -10 512.00124 512" width="512pt" xmlns="http://www.w3.org/2000/svg" fill="#1b729f"><path d="m503.722656 114.097656-241.769531-112.773437c-3.785156-1.765625-8.121094-1.765625-11.90625 0l-241.769531 112.773437c-4.9375 2.304688-8.128906 7.3125-8.128906 12.761719 1.546874 26.953125-4.09375 38.285156 6.515624 45.042969 4.082032 2.597656 9.128907 2.929687 13.519532.882812l235.816406-109.996094 235.816406 110c4.371094 2.039063 9.425782 1.71875 13.519532-.886718 10.613281-6.757813 4.96875-18.085938 6.515624-45.042969 0-5.449219-3.191406-10.457031-8.128906-12.761719zm-247.339844-99.1875c.003907 0 .003907 0 0 0 0 0-.003906.003906-.007812.003906zm240.476563 143.6875-234.910156-109.574218c-1.890625-.882813-3.921875-1.324219-5.949219-1.324219-2.03125 0-4.0625.441406-5.953125 1.324219l-234.90625 109.574218v-31.15625l240.859375-112.351562 240.859375 112.347656zm0 0"/><path d="m467.734375 187.679688v284.59375c0 2.332031-1.894531 4.226562-4.226563 4.226562h-37.242187v-275.703125c0-10.8125-8.796875-19.609375-19.613281-19.609375h-301.304688c-10.816406 0-19.613281 8.796875-19.613281 19.609375v275.703125h-37.242187c-2.332032 0-4.226563-1.894531-4.226563-4.222656v-284.234375c0-9.910157-14.992187-9.921875-14.992187 0v284.230469c0 10.597656 8.621093 19.21875 19.21875 19.21875h415.015624c10.597657 0 19.21875-8.621094 19.21875-19.21875v-284.59375c0-9.910157-14.992187-9.925782-14.992187 0zm-337.535156 210.144531h19.730469v21.464843l-4.832032-2.667968c-3.152344-1.742188-6.917968-1.742188-10.066406 0l-4.828125 2.667968v-21.464843zm-29.472657-14.992188v-78.679687h14.484376v29.226562c0 7.9375 8.511718 12.941406 15.445312 9.113282l9.410156-5.199219c6.265625 2.636719 12.171875 9.511719 19.734375 5.054687 3.207031-1.894531 5.121094-5.246094 5.121094-8.96875v-29.226562h14.242187c.132813 0 .242188.109375.242188.242187v78.4375zm29.472657-78.679687h19.730469v21.464844l-4.832032-2.667969c-3.152344-1.742188-6.917968-1.742188-10.066406 0l-4.828125 2.667969v-21.464844zm64.195312 93.671875h14.484375c1.304688 24.75-3.316406 33.214843 5.121094 38.191406 7.5625 4.464844 13.378906-2.378906 19.734375-5.050781 7.972656 4.082031 12.945313 9.054687 19.738281 5.050781 8.445313-4.984375 3.820313-13.601563 5.117188-38.191406h14.242187c.132813 0 .242188.109375.242188.242187v78.433594h-78.679688zm29.476563 0h19.726562v21.464843c-2.625-.984374-8.023437-6.46875-14.898437-2.667968l-4.828125 2.667968zm48.960937-14.992188h-78.4375v-78.4375c0-8.398437-6.832031-15.234375-15.230469-15.234375h-78.4375v-19.453125h241.171876c4.140624 0 7.496093-3.355469 7.496093-7.496093 0-4.136719-3.351562-7.496094-7.496093-7.496094h-241.171876v-21.757813h310.546876v21.761719h-39.390626c-4.140624 0-7.496093 3.355469-7.496093 7.496094s3.355469 7.496094 7.496093 7.496094h39.390626v206.792968h-123.210938v-78.4375c0-8.402344-6.832031-15.234375-15.230469-15.234375zm-167.484375-186.652343h301.304688c2.550781 0 4.621094 2.070312 4.621094 4.617187v17.167969h-310.546876v-17.167969c0-2.546875 2.070313-4.617187 4.621094-4.617187zm-4.621094 201.644531h14.484376v29.222656c0 7.925781 8.496093 12.953125 15.445312 9.117187l9.410156-5.199218c7.96875 4.078125 12.945313 9.054687 19.734375 5.050781 3.207031-1.890625 5.121094-5.242187 5.121094-8.96875v-29.222656h14.484375v78.675781h-78.679688zm0 0"/></svg>
